mtllib Assassin_Male.mtl
o Assassin_Male
v -0.36000 0.59000 -0.17000
v 0.36000 0.59000 -0.17000
v 0.36000 1.45000 -0.17000
v -0.36000 1.45000 -0.17000
v -0.36000 0.59000 0.17000
v 0.36000 0.59000 0.17000
v 0.36000 1.45000 0.17000
v -0.36000 1.45000 0.17000
v 0.00000 1.91450 0.00000
v 0.00000 1.91450 0.00000
v 0.00000 1.91450 0.00000
v 0.00000 1.91450 0.00000
v 0.00000 1.91450 0.00000
v 0.00000 1.91450 0.00000
v 0.00000 1.91450 0.00000
v 0.00000 1.91450 0.00000
v 0.00000 1.91450 0.00000
v 0.00000 1.91450 0.00000
v 0.00000 1.91450 0.00000
v 0.00000 1.91450 0.00000
v 0.11863 1.89208 0.00000
v 0.10274 1.89208 0.05932
v 0.05932 1.89208 0.10274
v 0.00000 1.89208 0.11863
v -0.05932 1.89208 0.10274
v -0.10274 1.89208 0.05932
v -0.11863 1.89208 0.00000
v -0.10274 1.89208 -0.05932
v -0.05932 1.89208 -0.10274
v -0.00000 1.89208 -0.11863
v 0.05932 1.89208 -0.10274
v 0.10274 1.89208 -0.05932
v 0.21920 1.82824 0.00000
v 0.18984 1.82824 0.10960
v 0.10960 1.82824 0.18984
v 0.00000 1.82824 0.21920
v -0.10960 1.82824 0.18984
v -0.18984 1.82824 0.10960
v -0.21920 1.82824 0.00000
v -0.18984 1.82824 -0.10960
v -0.10960 1.82824 -0.18984
v -0.00000 1.82824 -0.21920
v 0.10960 1.82824 -0.18984
v 0.18984 1.82824 -0.10960
v 0.28640 1.73270 0.00000
v 0.24803 1.73270 0.14320
v 0.14320 1.73270 0.24803
v 0.00000 1.73270 0.28640
v -0.14320 1.73270 0.24803
v -0.24803 1.73270 0.14320
v -0.28640 1.73270 0.00000
v -0.24803 1.73270 -0.14320
v -0.14320 1.73270 -0.24803
v -0.00000 1.73270 -0.28640
v 0.14320 1.73270 -0.24803
v 0.24803 1.73270 -0.14320
v 0.31000 1.62000 0.00000
v 0.26847 1.62000 0.15500
v 0.15500 1.62000 0.26847
v 0.00000 1.62000 0.31000
v -0.15500 1.62000 0.26847
v -0.26847 1.62000 0.15500
v -0.31000 1.62000 0.00000
v -0.26847 1.62000 -0.15500
v -0.15500 1.62000 -0.26847
v -0.00000 1.62000 -0.31000
v 0.15500 1.62000 -0.26847
v 0.26847 1.62000 -0.15500
v 0.28640 1.50730 0.00000
v 0.24803 1.50730 0.14320
v 0.14320 1.50730 0.24803
v 0.00000 1.50730 0.28640
v -0.14320 1.50730 0.24803
v -0.24803 1.50730 0.14320
v -0.28640 1.50730 0.00000
v -0.24803 1.50730 -0.14320
v -0.14320 1.50730 -0.24803
v -0.00000 1.50730 -0.28640
v 0.14320 1.50730 -0.24803
v 0.24803 1.50730 -0.14320
v 0.21920 1.41176 0.00000
v 0.18984 1.41176 0.10960
v 0.10960 1.41176 0.18984
v 0.00000 1.41176 0.21920
v -0.10960 1.41176 0.18984
v -0.18984 1.41176 0.10960
v -0.21920 1.41176 0.00000
v -0.18984 1.41176 -0.10960
v -0.10960 1.41176 -0.18984
v -0.00000 1.41176 -0.21920
v 0.10960 1.41176 -0.18984
v 0.18984 1.41176 -0.10960
v 0.11863 1.34792 0.00000
v 0.10274 1.34792 0.05932
v 0.05932 1.34792 0.10274
v 0.00000 1.34792 0.11863
v -0.05932 1.34792 0.10274
v -0.10274 1.34792 0.05932
v -0.11863 1.34792 0.00000
v -0.10274 1.34792 -0.05932
v -0.05932 1.34792 -0.10274
v -0.00000 1.34792 -0.11863
v 0.05932 1.34792 -0.10274
v 0.10274 1.34792 -0.05932
v 0.00000 1.32550 0.00000
v 0.00000 1.32550 0.00000
v 0.00000 1.32550 0.00000
v 0.00000 1.32550 0.00000
v -0.00000 1.32550 0.00000
v -0.00000 1.32550 0.00000
v -0.00000 1.32550 0.00000
v -0.00000 1.32550 -0.00000
v -0.00000 1.32550 -0.00000
v -0.00000 1.32550 -0.00000
v 0.00000 1.32550 -0.00000
v 0.00000 1.32550 -0.00000
v 0.00000 1.90600 0.00000
v 0.00000 1.90600 0.00000
v 0.00000 1.90600 0.00000
v 0.00000 1.90600 0.00000
v 0.00000 1.90600 0.00000
v 0.00000 1.90600 0.00000
v 0.00000 1.90600 0.00000
v 0.00000 1.90600 0.00000
v 0.00000 1.90600 0.00000
v 0.00000 1.90600 0.00000
v 0.00000 1.90600 0.00000
v 0.00000 1.90600 0.00000
v 0.11481 1.89641 0.00000
v 0.09942 1.89641 0.05740
v 0.05740 1.89641 0.09942
v 0.00000 1.89641 0.11481
v -0.05740 1.89641 0.09942
v -0.09942 1.89641 0.05740
v -0.11481 1.89641 0.00000
v -0.09942 1.89641 -0.05740
v -0.05740 1.89641 -0.09942
v -0.00000 1.89641 -0.11481
v 0.05740 1.89641 -0.09942
v 0.09942 1.89641 -0.05740
v 0.21213 1.86910 0.00000
v 0.18371 1.86910 0.10607
v 0.10607 1.86910 0.18371
v 0.00000 1.86910 0.21213
v -0.10607 1.86910 0.18371
v -0.18371 1.86910 0.10607
v -0.21213 1.86910 0.00000
v -0.18371 1.86910 -0.10607
v -0.10607 1.86910 -0.18371
v -0.00000 1.86910 -0.21213
v 0.10607 1.86910 -0.18371
v 0.18371 1.86910 -0.10607
v 0.27716 1.82822 0.00000
v 0.24003 1.82822 0.13858
v 0.13858 1.82822 0.24003
v 0.00000 1.82822 0.27716
v -0.13858 1.82822 0.24003
v -0.24003 1.82822 0.13858
v -0.27716 1.82822 0.00000
v -0.24003 1.82822 -0.13858
v -0.13858 1.82822 -0.24003
v -0.00000 1.82822 -0.27716
v 0.13858 1.82822 -0.24003
v 0.24003 1.82822 -0.13858
v 0.30000 1.78000 0.00000
v 0.25981 1.78000 0.15000
v 0.15000 1.78000 0.25981
v 0.00000 1.78000 0.30000
v -0.15000 1.78000 0.25981
v -0.25981 1.78000 0.15000
v -0.30000 1.78000 0.00000
v -0.25981 1.78000 -0.15000
v -0.15000 1.78000 -0.25981
v -0.00000 1.78000 -0.30000
v 0.15000 1.78000 -0.25981
v 0.25981 1.78000 -0.15000
v 0.27716 1.73178 0.00000
v 0.24003 1.73178 0.13858
v 0.13858 1.73178 0.24003
v 0.00000 1.73178 0.27716
v -0.13858 1.73178 0.24003
v -0.24003 1.73178 0.13858
v -0.27716 1.73178 0.00000
v -0.24003 1.73178 -0.13858
v -0.13858 1.73178 -0.24003
v -0.00000 1.73178 -0.27716
v 0.13858 1.73178 -0.24003
v 0.24003 1.73178 -0.13858
v 0.21213 1.69090 0.00000
v 0.18371 1.69090 0.10607
v 0.10607 1.69090 0.18371
v 0.00000 1.69090 0.21213
v -0.10607 1.69090 0.18371
v -0.18371 1.69090 0.10607
v -0.21213 1.69090 0.00000
v -0.18371 1.69090 -0.10607
v -0.10607 1.69090 -0.18371
v -0.00000 1.69090 -0.21213
v 0.10607 1.69090 -0.18371
v 0.18371 1.69090 -0.10607
v 0.11481 1.66359 0.00000
v 0.09942 1.66359 0.05740
v 0.05740 1.66359 0.09942
v 0.00000 1.66359 0.11481
v -0.05740 1.66359 0.09942
v -0.09942 1.66359 0.05740
v -0.11481 1.66359 0.00000
v -0.09942 1.66359 -0.05740
v -0.05740 1.66359 -0.09942
v -0.00000 1.66359 -0.11481
v 0.05740 1.66359 -0.09942
v 0.09942 1.66359 -0.05740
v 0.00000 1.65400 0.00000
v 0.00000 1.65400 0.00000
v 0.00000 1.65400 0.00000
v 0.00000 1.65400 0.00000
v -0.00000 1.65400 0.00000
v -0.00000 1.65400 0.00000
v -0.00000 1.65400 0.00000
v -0.00000 1.65400 -0.00000
v -0.00000 1.65400 -0.00000
v -0.00000 1.65400 -0.00000
v 0.00000 1.65400 -0.00000
v 0.00000 1.65400 -0.00000
v 0.11000 1.36000 0.00000
v 0.09526 1.36000 0.05500
v 0.05500 1.36000 0.09526
v 0.00000 1.36000 0.11000
v -0.05500 1.36000 0.09526
v -0.09526 1.36000 0.05500
v -0.11000 1.36000 0.00000
v -0.09526 1.36000 -0.05500
v -0.05500 1.36000 -0.09526
v -0.00000 1.36000 -0.11000
v 0.05500 1.36000 -0.09526
v 0.09526 1.36000 -0.05500
v 0.11000 1.54000 0.00000
v 0.09526 1.54000 0.05500
v 0.05500 1.54000 0.09526
v 0.00000 1.54000 0.11000
v -0.05500 1.54000 0.09526
v -0.09526 1.54000 0.05500
v -0.11000 1.54000 0.00000
v -0.09526 1.54000 -0.05500
v -0.05500 1.54000 -0.09526
v -0.00000 1.54000 -0.11000
v 0.05500 1.54000 -0.09526
v 0.09526 1.54000 -0.05500
v 0.53611 1.31029 0.00000
v 0.51394 1.30451 0.07053
v 0.45588 1.28936 0.11413
v 0.38412 1.27064 0.11413
v 0.32606 1.25549 0.07053
v 0.30389 1.24971 0.00000
v 0.32606 1.25549 -0.07053
v 0.38412 1.27064 -0.11413
v 0.45588 1.28936 -0.11413
v 0.51394 1.30451 -0.07053
v 0.62225 0.84146 0.00000
v 0.60654 0.83736 0.04996
v 0.56542 0.82663 0.08084
v 0.51458 0.81337 0.08084
v 0.47346 0.80264 0.04996
v 0.45775 0.79854 0.00000
v 0.47346 0.80264 -0.04996
v 0.51458 0.81337 -0.08084
v 0.56542 0.82663 -0.08084
v 0.60654 0.83736 -0.04996
v -0.30389 1.24971 0.00000
v -0.32606 1.25549 0.07053
v -0.38412 1.27064 0.11413
v -0.45588 1.28936 0.11413
v -0.51394 1.30451 0.07053
v -0.53611 1.31029 0.00000
v -0.51394 1.30451 -0.07053
v -0.45588 1.28936 -0.11413
v -0.38412 1.27064 -0.11413
v -0.32606 1.25549 -0.07053
v -0.45775 0.79854 0.00000
v -0.47346 0.80264 0.04996
v -0.51458 0.81337 0.08084
v -0.56542 0.82663 0.08084
v -0.60654 0.83736 0.04996
v -0.62225 0.84146 0.00000
v -0.60654 0.83736 -0.04996
v -0.56542 0.82663 -0.08084
v -0.51458 0.81337 -0.08084
v -0.47346 0.80264 -0.04996
v 0.54000 0.85000 0.00000
v 0.54000 0.85000 0.00000
v 0.54000 0.85000 0.00000
v 0.54000 0.85000 0.00000
v 0.54000 0.85000 0.00000
v 0.54000 0.85000 0.00000
v 0.54000 0.85000 0.00000
v 0.54000 0.85000 0.00000
v 0.54000 0.85000 0.00000
v 0.54000 0.85000 0.00000
v 0.54000 0.85000 0.00000
v 0.54000 0.85000 0.00000
v 0.57444 0.84315 0.00000
v 0.56983 0.84315 0.01722
v 0.55722 0.84315 0.02983
v 0.54000 0.84315 0.03444
v 0.52278 0.84315 0.02983
v 0.51017 0.84315 0.01722
v 0.50556 0.84315 0.00000
v 0.51017 0.84315 -0.01722
v 0.52278 0.84315 -0.02983
v 0.54000 0.84315 -0.03444
v 0.55722 0.84315 -0.02983
v 0.56983 0.84315 -0.01722
v 0.60364 0.82364 0.00000
v 0.59511 0.82364 0.03182
v 0.57182 0.82364 0.05511
v 0.54000 0.82364 0.06364
v 0.50818 0.82364 0.05511
v 0.48489 0.82364 0.03182
v 0.47636 0.82364 0.00000
v 0.48489 0.82364 -0.03182
v 0.50818 0.82364 -0.05511
v 0.54000 0.82364 -0.06364
v 0.57182 0.82364 -0.05511
v 0.59511 0.82364 -0.03182
v 0.62315 0.79444 0.00000
v 0.61201 0.79444 0.04157
v 0.58157 0.79444 0.07201
v 0.54000 0.79444 0.08315
v 0.49843 0.79444 0.07201
v 0.46799 0.79444 0.04157
v 0.45685 0.79444 0.00000
v 0.46799 0.79444 -0.04157
v 0.49843 0.79444 -0.07201
v 0.54000 0.79444 -0.08315
v 0.58157 0.79444 -0.07201
v 0.61201 0.79444 -0.04157
v 0.63000 0.76000 0.00000
v 0.61794 0.76000 0.04500
v 0.58500 0.76000 0.07794
v 0.54000 0.76000 0.09000
v 0.49500 0.76000 0.07794
v 0.46206 0.76000 0.04500
v 0.45000 0.76000 0.00000
v 0.46206 0.76000 -0.04500
v 0.49500 0.76000 -0.07794
v 0.54000 0.76000 -0.09000
v 0.58500 0.76000 -0.07794
v 0.61794 0.76000 -0.04500
v 0.62315 0.72556 0.00000
v 0.61201 0.72556 0.04157
v 0.58157 0.72556 0.07201
v 0.54000 0.72556 0.08315
v 0.49843 0.72556 0.07201
v 0.46799 0.72556 0.04157
v 0.45685 0.72556 0.00000
v 0.46799 0.72556 -0.04157
v 0.49843 0.72556 -0.07201
v 0.54000 0.72556 -0.08315
v 0.58157 0.72556 -0.07201
v 0.61201 0.72556 -0.04157
v 0.60364 0.69636 0.00000
v 0.59511 0.69636 0.03182
v 0.57182 0.69636 0.05511
v 0.54000 0.69636 0.06364
v 0.50818 0.69636 0.05511
v 0.48489 0.69636 0.03182
v 0.47636 0.69636 0.00000
v 0.48489 0.69636 -0.03182
v 0.50818 0.69636 -0.05511
v 0.54000 0.69636 -0.06364
v 0.57182 0.69636 -0.05511
v 0.59511 0.69636 -0.03182
v 0.57444 0.67685 0.00000
v 0.56983 0.67685 0.01722
v 0.55722 0.67685 0.02983
v 0.54000 0.67685 0.03444
v 0.52278 0.67685 0.02983
v 0.51017 0.67685 0.01722
v 0.50556 0.67685 0.00000
v 0.51017 0.67685 -0.01722
v 0.52278 0.67685 -0.02983
v 0.54000 0.67685 -0.03444
v 0.55722 0.67685 -0.02983
v 0.56983 0.67685 -0.01722
v 0.54000 0.67000 0.00000
v 0.54000 0.67000 0.00000
v 0.54000 0.67000 0.00000
v 0.54000 0.67000 0.00000
v 0.54000 0.67000 0.00000
v 0.54000 0.67000 0.00000
v 0.54000 0.67000 0.00000
v 0.54000 0.67000 -0.00000
v 0.54000 0.67000 -0.00000
v 0.54000 0.67000 -0.00000
v 0.54000 0.67000 -0.00000
v 0.54000 0.67000 -0.00000
v -0.54000 0.85000 0.00000
v -0.54000 0.85000 0.00000
v -0.54000 0.85000 0.00000
v -0.54000 0.85000 0.00000
v -0.54000 0.85000 0.00000
v -0.54000 0.85000 0.00000
v -0.54000 0.85000 0.00000
v -0.54000 0.85000 0.00000
v -0.54000 0.85000 0.00000
v -0.54000 0.85000 0.00000
v -0.54000 0.85000 0.00000
v -0.54000 0.85000 0.00000
v -0.50556 0.84315 0.00000
v -0.51017 0.84315 0.01722
v -0.52278 0.84315 0.02983
v -0.54000 0.84315 0.03444
v -0.55722 0.84315 0.02983
v -0.56983 0.84315 0.01722
v -0.57444 0.84315 0.00000
v -0.56983 0.84315 -0.01722
v -0.55722 0.84315 -0.02983
v -0.54000 0.84315 -0.03444
v -0.52278 0.84315 -0.02983
v -0.51017 0.84315 -0.01722
v -0.47636 0.82364 0.00000
v -0.48489 0.82364 0.03182
v -0.50818 0.82364 0.05511
v -0.54000 0.82364 0.06364
v -0.57182 0.82364 0.05511
v -0.59511 0.82364 0.03182
v -0.60364 0.82364 0.00000
v -0.59511 0.82364 -0.03182
v -0.57182 0.82364 -0.05511
v -0.54000 0.82364 -0.06364
v -0.50818 0.82364 -0.05511
v -0.48489 0.82364 -0.03182
v -0.45685 0.79444 0.00000
v -0.46799 0.79444 0.04157
v -0.49843 0.79444 0.07201
v -0.54000 0.79444 0.08315
v -0.58157 0.79444 0.07201
v -0.61201 0.79444 0.04157
v -0.62315 0.79444 0.00000
v -0.61201 0.79444 -0.04157
v -0.58157 0.79444 -0.07201
v -0.54000 0.79444 -0.08315
v -0.49843 0.79444 -0.07201
v -0.46799 0.79444 -0.04157
v -0.45000 0.76000 0.00000
v -0.46206 0.76000 0.04500
v -0.49500 0.76000 0.07794
v -0.54000 0.76000 0.09000
v -0.58500 0.76000 0.07794
v -0.61794 0.76000 0.04500
v -0.63000 0.76000 0.00000
v -0.61794 0.76000 -0.04500
v -0.58500 0.76000 -0.07794
v -0.54000 0.76000 -0.09000
v -0.49500 0.76000 -0.07794
v -0.46206 0.76000 -0.04500
v -0.45685 0.72556 0.00000
v -0.46799 0.72556 0.04157
v -0.49843 0.72556 0.07201
v -0.54000 0.72556 0.08315
v -0.58157 0.72556 0.07201
v -0.61201 0.72556 0.04157
v -0.62315 0.72556 0.00000
v -0.61201 0.72556 -0.04157
v -0.58157 0.72556 -0.07201
v -0.54000 0.72556 -0.08315
v -0.49843 0.72556 -0.07201
v -0.46799 0.72556 -0.04157
v -0.47636 0.69636 0.00000
v -0.48489 0.69636 0.03182
v -0.50818 0.69636 0.05511
v -0.54000 0.69636 0.06364
v -0.57182 0.69636 0.05511
v -0.59511 0.69636 0.03182
v -0.60364 0.69636 0.00000
v -0.59511 0.69636 -0.03182
v -0.57182 0.69636 -0.05511
v -0.54000 0.69636 -0.06364
v -0.50818 0.69636 -0.05511
v -0.48489 0.69636 -0.03182
v -0.50556 0.67685 0.00000
v -0.51017 0.67685 0.01722
v -0.52278 0.67685 0.02983
v -0.54000 0.67685 0.03444
v -0.55722 0.67685 0.02983
v -0.56983 0.67685 0.01722
v -0.57444 0.67685 0.00000
v -0.56983 0.67685 -0.01722
v -0.55722 0.67685 -0.02983
v -0.54000 0.67685 -0.03444
v -0.52278 0.67685 -0.02983
v -0.51017 0.67685 -0.01722
v -0.54000 0.67000 0.00000
v -0.54000 0.67000 0.00000
v -0.54000 0.67000 0.00000
v -0.54000 0.67000 0.00000
v -0.54000 0.67000 0.00000
v -0.54000 0.67000 0.00000
v -0.54000 0.67000 0.00000
v -0.54000 0.67000 -0.00000
v -0.54000 0.67000 -0.00000
v -0.54000 0.67000 -0.00000
v -0.54000 0.67000 -0.00000
v -0.54000 0.67000 -0.00000
v 0.37000 0.62000 0.00000
v 0.34135 0.62000 0.08817
v 0.26635 0.62000 0.14266
v 0.17365 0.62000 0.14266
v 0.09865 0.62000 0.08817
v 0.07000 0.62000 0.00000
v 0.09865 0.62000 -0.08817
v 0.17365 0.62000 -0.14266
v 0.26635 0.62000 -0.14266
v 0.34135 0.62000 -0.08817
v 0.32500 0.10000 0.00000
v 0.30495 0.10000 0.06172
v 0.25245 0.10000 0.09986
v 0.18755 0.10000 0.09986
v 0.13505 0.10000 0.06172
v 0.11500 0.10000 0.00000
v 0.13505 0.10000 -0.06172
v 0.18755 0.10000 -0.09986
v 0.25245 0.10000 -0.09986
v 0.30495 0.10000 -0.06172
v -0.07000 0.62000 0.00000
v -0.09865 0.62000 0.08817
v -0.17365 0.62000 0.14266
v -0.26635 0.62000 0.14266
v -0.34135 0.62000 0.08817
v -0.37000 0.62000 0.00000
v -0.34135 0.62000 -0.08817
v -0.26635 0.62000 -0.14266
v -0.17365 0.62000 -0.14266
v -0.09865 0.62000 -0.08817
v -0.11500 0.10000 0.00000
v -0.13505 0.10000 0.06172
v -0.18755 0.10000 0.09986
v -0.25245 0.10000 0.09986
v -0.30495 0.10000 0.06172
v -0.32500 0.10000 0.00000
v -0.30495 0.10000 -0.06172
v -0.25245 0.10000 -0.09986
v -0.18755 0.10000 -0.09986
v -0.13505 0.10000 -0.06172
v 0.10000 -0.02000 -0.16000
v 0.34000 -0.02000 -0.16000
v 0.34000 0.10000 -0.16000
v 0.10000 0.10000 -0.16000
v 0.10000 -0.02000 0.32000
v 0.34000 -0.02000 0.32000
v 0.34000 0.10000 0.32000
v 0.10000 0.10000 0.32000
v -0.34000 -0.02000 -0.16000
v -0.10000 -0.02000 -0.16000
v -0.10000 0.10000 -0.16000
v -0.34000 0.10000 -0.16000
v -0.34000 -0.02000 0.32000
v -0.10000 -0.02000 0.32000
v -0.10000 0.10000 0.32000
v -0.34000 0.10000 0.32000
v -0.39000 0.66000 -0.19000
v 0.39000 0.66000 -0.19000
v 0.39000 0.78000 -0.19000
v -0.39000 0.78000 -0.19000
v -0.39000 0.66000 0.19000
v 0.39000 0.66000 0.19000
v 0.39000 0.78000 0.19000
v -0.39000 0.78000 0.19000
v -0.35000 0.60000 -0.24000
v 0.35000 0.60000 -0.24000
v 0.35000 1.50000 -0.24000
v -0.35000 1.50000 -0.24000
v -0.35000 0.60000 -0.16000
v 0.35000 0.60000 -0.16000
v 0.35000 1.50000 -0.16000
v -0.35000 1.50000 -0.16000
v 0.31000 0.73000 -0.01000
v 0.37000 0.73000 -0.01000
v 0.37000 1.15000 -0.01000
v 0.31000 1.15000 -0.01000
v 0.31000 0.73000 0.05000
v 0.37000 0.73000 0.05000
v 0.37000 1.15000 0.05000
v 0.31000 1.15000 0.05000
v -0.37000 0.73000 -0.01000
v -0.31000 0.73000 -0.01000
v -0.31000 1.15000 -0.01000
v -0.37000 1.15000 -0.01000
v -0.37000 0.73000 0.05000
v -0.31000 0.73000 0.05000
v -0.31000 1.15000 0.05000
v -0.37000 1.15000 0.05000
v 0.47000 0.78000 0.00500
v 0.53000 0.78000 0.00500
v 0.53000 1.06000 0.00500
v 0.47000 1.06000 0.00500
v 0.47000 0.78000 0.05500
v 0.53000 0.78000 0.05500
v 0.53000 1.06000 0.05500
v 0.47000 1.06000 0.05500
v -0.53000 0.78000 0.00500
v -0.47000 0.78000 0.00500
v -0.47000 1.06000 0.00500
v -0.53000 1.06000 0.00500
v -0.53000 0.78000 0.05500
v -0.47000 0.78000 0.05500
v -0.47000 1.06000 0.05500
v -0.53000 1.06000 0.05500
v -0.10000 1.26000 -0.27000
v 0.10000 1.26000 -0.27000
v 0.10000 1.44000 -0.27000
v -0.10000 1.44000 -0.27000
v -0.10000 1.26000 -0.21000
v 0.10000 1.26000 -0.21000
v 0.10000 1.44000 -0.21000
v -0.10000 1.44000 -0.21000
usemtl Cloth
f 2 3 4 5
f 6 9 8 7
f 2 6 7 3
f 3 7 8 4
f 4 8 9 5
f 6 2 5 9
usemtl Skin
f 9 10 22 21
f 10 11 23 22
f 11 12 24 23
f 12 13 25 24
f 13 14 26 25
f 14 15 27 26
f 15 16 28 27
f 16 17 29 28
f 17 18 30 29
f 18 19 31 30
f 19 20 32 31
f 20 9 21 32
f 21 22 34 33
f 22 23 35 34
f 23 24 36 35
f 24 25 37 36
f 25 26 38 37
f 26 27 39 38
f 27 28 40 39
f 28 29 41 40
f 29 30 42 41
f 30 31 43 42
f 31 32 44 43
f 32 21 33 44
f 33 34 46 45
f 34 35 47 46
f 35 36 48 47
f 36 37 49 48
f 37 38 50 49
f 38 39 51 50
f 39 40 52 51
f 40 41 53 52
f 41 42 54 53
f 42 43 55 54
f 43 44 56 55
f 44 33 45 56
f 45 46 58 57
f 46 47 59 58
f 47 48 60 59
f 48 49 61 60
f 49 50 62 61
f 50 51 63 62
f 51 52 64 63
f 52 53 65 64
f 53 54 66 65
f 54 55 67 66
f 55 56 68 67
f 56 45 57 68
f 57 58 70 69
f 58 59 71 70
f 59 60 72 71
f 60 61 73 72
f 61 62 74 73
f 62 63 75 74
f 63 64 76 75
f 64 65 77 76
f 65 66 78 77
f 66 67 79 78
f 67 68 80 79
f 68 57 69 80
f 69 70 82 81
f 70 71 83 82
f 71 72 84 83
f 72 73 85 84
f 73 74 86 85
f 74 75 87 86
f 75 76 88 87
f 76 77 89 88
f 77 78 90 89
f 78 79 91 90
f 79 80 92 91
f 80 69 81 92
f 81 82 94 93
f 82 83 95 94
f 83 84 96 95
f 84 85 97 96
f 85 86 98 97
f 86 87 99 98
f 87 88 100 99
f 88 89 101 100
f 89 90 102 101
f 90 91 103 102
f 91 92 104 103
f 92 81 93 104
f 93 94 106 105
f 94 95 107 106
f 95 96 108 107
f 96 97 109 108
f 97 98 110 109
f 98 99 111 110
f 99 100 112 111
f 100 101 113 112
f 101 102 114 113
f 102 103 115 114
f 103 104 116 115
f 104 93 105 116
usemtl Hair
f 117 118 130 129
f 118 119 131 130
f 119 120 132 131
f 120 121 133 132
f 121 122 134 133
f 122 123 135 134
f 123 124 136 135
f 124 125 137 136
f 125 126 138 137
f 126 127 139 138
f 127 128 140 139
f 128 117 129 140
f 129 130 142 141
f 130 131 143 142
f 131 132 144 143
f 132 133 145 144
f 133 134 146 145
f 134 135 147 146
f 135 136 148 147
f 136 137 149 148
f 137 138 150 149
f 138 139 151 150
f 139 140 152 151
f 140 129 141 152
f 141 142 154 153
f 142 143 155 154
f 143 144 156 155
f 144 145 157 156
f 145 146 158 157
f 146 147 159 158
f 147 148 160 159
f 148 149 161 160
f 149 150 162 161
f 150 151 163 162
f 151 152 164 163
f 152 141 153 164
f 153 154 166 165
f 154 155 167 166
f 155 156 168 167
f 156 157 169 168
f 157 158 170 169
f 158 159 171 170
f 159 160 172 171
f 160 161 173 172
f 161 162 174 173
f 162 163 175 174
f 163 164 176 175
f 164 153 165 176
f 165 166 178 177
f 166 167 179 178
f 167 168 180 179
f 168 169 181 180
f 169 170 182 181
f 170 171 183 182
f 171 172 184 183
f 172 173 185 184
f 173 174 186 185
f 174 175 187 186
f 175 176 188 187
f 176 165 177 188
f 177 178 190 189
f 178 179 191 190
f 179 180 192 191
f 180 181 193 192
f 181 182 194 193
f 182 183 195 194
f 183 184 196 195
f 184 185 197 196
f 185 186 198 197
f 186 187 199 198
f 187 188 200 199
f 188 177 189 200
f 189 190 202 201
f 190 191 203 202
f 191 192 204 203
f 192 193 205 204
f 193 194 206 205
f 194 195 207 206
f 195 196 208 207
f 196 197 209 208
f 197 198 210 209
f 198 199 211 210
f 199 200 212 211
f 200 189 201 212
f 201 202 214 213
f 202 203 215 214
f 203 204 216 215
f 204 205 217 216
f 205 206 218 217
f 206 207 219 218
f 207 208 220 219
f 208 209 221 220
f 209 210 222 221
f 210 211 223 222
f 211 212 224 223
f 212 201 213 224
usemtl Skin
f 225 226 238 237
f 226 227 239 238
f 227 228 240 239
f 228 229 241 240
f 229 230 242 241
f 230 231 243 242
f 231 232 244 243
f 232 233 245 244
f 233 234 246 245
f 234 235 247 246
f 235 236 248 247
f 236 225 237 248
usemtl Cloth
f 249 250 260 259
f 250 251 261 260
f 251 252 262 261
f 252 253 263 262
f 253 254 264 263
f 254 255 265 264
f 255 256 266 265
f 256 257 267 266
f 257 258 268 267
f 258 249 259 268
f 269 270 280 279
f 270 271 281 280
f 271 272 282 281
f 272 273 283 282
f 273 274 284 283
f 274 275 285 284
f 275 276 286 285
f 276 277 287 286
f 277 278 288 287
f 278 269 279 288
usemtl Skin
f 289 290 302 301
f 290 291 303 302
f 291 292 304 303
f 292 293 305 304
f 293 294 306 305
f 294 295 307 306
f 295 296 308 307
f 296 297 309 308
f 297 298 310 309
f 298 299 311 310
f 299 300 312 311
f 300 289 301 312
f 301 302 314 313
f 302 303 315 314
f 303 304 316 315
f 304 305 317 316
f 305 306 318 317
f 306 307 319 318
f 307 308 320 319
f 308 309 321 320
f 309 310 322 321
f 310 311 323 322
f 311 312 324 323
f 312 301 313 324
f 313 314 326 325
f 314 315 327 326
f 315 316 328 327
f 316 317 329 328
f 317 318 330 329
f 318 319 331 330
f 319 320 332 331
f 320 321 333 332
f 321 322 334 333
f 322 323 335 334
f 323 324 336 335
f 324 313 325 336
f 325 326 338 337
f 326 327 339 338
f 327 328 340 339
f 328 329 341 340
f 329 330 342 341
f 330 331 343 342
f 331 332 344 343
f 332 333 345 344
f 333 334 346 345
f 334 335 347 346
f 335 336 348 347
f 336 325 337 348
f 337 338 350 349
f 338 339 351 350
f 339 340 352 351
f 340 341 353 352
f 341 342 354 353
f 342 343 355 354
f 343 344 356 355
f 344 345 357 356
f 345 346 358 357
f 346 347 359 358
f 347 348 360 359
f 348 337 349 360
f 349 350 362 361
f 350 351 363 362
f 351 352 364 363
f 352 353 365 364
f 353 354 366 365
f 354 355 367 366
f 355 356 368 367
f 356 357 369 368
f 357 358 370 369
f 358 359 371 370
f 359 360 372 371
f 360 349 361 372
f 361 362 374 373
f 362 363 375 374
f 363 364 376 375
f 364 365 377 376
f 365 366 378 377
f 366 367 379 378
f 367 368 380 379
f 368 369 381 380
f 369 370 382 381
f 370 371 383 382
f 371 372 384 383
f 372 361 373 384
f 373 374 386 385
f 374 375 387 386
f 375 376 388 387
f 376 377 389 388
f 377 378 390 389
f 378 379 391 390
f 379 380 392 391
f 380 381 393 392
f 381 382 394 393
f 382 383 395 394
f 383 384 396 395
f 384 373 385 396
f 397 398 410 409
f 398 399 411 410
f 399 400 412 411
f 400 401 413 412
f 401 402 414 413
f 402 403 415 414
f 403 404 416 415
f 404 405 417 416
f 405 406 418 417
f 406 407 419 418
f 407 408 420 419
f 408 397 409 420
f 409 410 422 421
f 410 411 423 422
f 411 412 424 423
f 412 413 425 424
f 413 414 426 425
f 414 415 427 426
f 415 416 428 427
f 416 417 429 428
f 417 418 430 429
f 418 419 431 430
f 419 420 432 431
f 420 409 421 432
f 421 422 434 433
f 422 423 435 434
f 423 424 436 435
f 424 425 437 436
f 425 426 438 437
f 426 427 439 438
f 427 428 440 439
f 428 429 441 440
f 429 430 442 441
f 430 431 443 442
f 431 432 444 443
f 432 421 433 444
f 433 434 446 445
f 434 435 447 446
f 435 436 448 447
f 436 437 449 448
f 437 438 450 449
f 438 439 451 450
f 439 440 452 451
f 440 441 453 452
f 441 442 454 453
f 442 443 455 454
f 443 444 456 455
f 444 433 445 456
f 445 446 458 457
f 446 447 459 458
f 447 448 460 459
f 448 449 461 460
f 449 450 462 461
f 450 451 463 462
f 451 452 464 463
f 452 453 465 464
f 453 454 466 465
f 454 455 467 466
f 455 456 468 467
f 456 445 457 468
f 457 458 470 469
f 458 459 471 470
f 459 460 472 471
f 460 461 473 472
f 461 462 474 473
f 462 463 475 474
f 463 464 476 475
f 464 465 477 476
f 465 466 478 477
f 466 467 479 478
f 467 468 480 479
f 468 457 469 480
f 469 470 482 481
f 470 471 483 482
f 471 472 484 483
f 472 473 485 484
f 473 474 486 485
f 474 475 487 486
f 475 476 488 487
f 476 477 489 488
f 477 478 490 489
f 478 479 491 490
f 479 480 492 491
f 480 469 481 492
f 481 482 494 493
f 482 483 495 494
f 483 484 496 495
f 484 485 497 496
f 485 486 498 497
f 486 487 499 498
f 487 488 500 499
f 488 489 501 500
f 489 490 502 501
f 490 491 503 502
f 491 492 504 503
f 492 481 493 504
usemtl Dark
f 505 506 516 515
f 506 507 517 516
f 507 508 518 517
f 508 509 519 518
f 509 510 520 519
f 510 511 521 520
f 511 512 522 521
f 512 513 523 522
f 513 514 524 523
f 514 505 515 524
f 525 526 536 535
f 526 527 537 536
f 527 528 538 537
f 528 529 539 538
f 529 530 540 539
f 530 531 541 540
f 531 532 542 541
f 532 533 543 542
f 533 534 544 543
f 534 525 535 544
f 546 547 548 549
f 550 553 552 551
f 546 550 551 547
f 547 551 552 548
f 548 552 553 549
f 550 546 549 553
f 554 555 556 557
f 558 561 560 559
f 554 558 559 555
f 555 559 560 556
f 556 560 561 557
f 558 554 557 561
usemtl Accent
f 562 563 564 565
f 566 569 568 567
f 562 566 567 563
f 563 567 568 564
f 564 568 569 565
f 566 562 565 569
usemtl Dark
f 570 571 572 573
f 574 577 576 575
f 570 574 575 571
f 571 575 576 572
f 572 576 577 573
f 574 570 573 577
usemtl Metal
f 578 579 580 581
f 582 585 584 583
f 578 582 583 579
f 579 583 584 580
f 580 584 585 581
f 582 578 581 585
f 586 587 588 589
f 590 593 592 591
f 586 590 591 587
f 587 591 592 588
f 588 592 593 589
f 590 586 589 593
f 594 595 596 597
f 598 601 600 599
f 594 598 599 595
f 595 599 600 596
f 596 600 601 597
f 598 594 597 601
f 602 603 604 605
f 606 609 608 607
f 602 606 607 603
f 603 607 608 604
f 604 608 609 605
f 606 602 605 609
usemtl Accent
f 610 611 612 613
f 614 617 616 615
f 610 614 615 611
f 611 615 616 612
f 612 616 617 613
f 614 610 613 617
